<svg width="184" height="97" viewBox="0 0 184 97" fill="none" xmlns="http://www.w3.org/2000/svg">
<g id="Group">
<g id="Group_2">
<path id="Vector" d="M69.3354 29.7626C69.8778 29.7626 70.1942 30.3582 70.1942 31.3793V40.9092C70.1942 41.9303 69.8778 42.5259 69.3354 42.5259H65.6745C65.4485 42.5259 65.3129 42.7811 65.3129 43.2066V72.3919C65.3129 73.413 64.9965 74.0086 64.4542 74.0086H57.6746C57.1323 74.0086 56.8159 73.413 56.8159 72.3919V43.2066C56.8159 42.7811 56.6803 42.5259 56.4543 42.5259H54.4657C53.9233 42.5259 53.6069 41.9303 53.6069 40.9092V31.3793C53.6069 30.3582 53.9233 29.7626 54.4657 29.7626H56.4543C56.6803 29.7626 56.8159 29.5073 56.8159 29.0819V26.6994C56.8159 17.1695 59.6633 13.766 66.9852 14.4467H68.7027C69.245 14.4467 69.5614 15.0423 69.5614 16.0634V23.4661C69.5614 24.4871 69.245 25.0827 68.7027 25.0827H66.9852C65.7649 25.338 65.3129 26.1889 65.3129 28.1459V29.0819C65.3129 29.5073 65.4485 29.7626 65.6745 29.7626H69.3354ZM82.8044 74.6893C77.0192 74.6893 72.9063 68.3077 71.6408 58.6076C71.3244 56.4804 71.1888 54.183 71.1888 51.8005C71.1888 49.0777 71.3696 46.525 71.7312 44.2276C73.1323 34.953 77.2 29.0819 82.8496 29.0819C88.5444 29.0819 92.4765 35.0381 93.8776 44.0575C94.2392 46.4399 94.42 48.9075 94.42 51.6303C94.42 53.9277 94.2844 56.0549 94.0584 58.0971C92.8381 68.1375 88.7252 74.6893 82.8044 74.6893ZM82.8044 60.9901C84.4315 60.9901 85.3354 58.6927 85.697 55.5444C85.8326 54.3532 85.8778 53.0769 85.8778 51.7154C85.8778 50.2689 85.7874 48.9926 85.6518 47.8014C85.245 44.7382 84.3411 42.7811 82.8044 42.7811C81.1773 42.7811 80.3186 44.8233 79.957 47.8014C79.7762 48.9926 79.731 50.354 79.731 51.7154C79.731 53.0769 79.7762 54.3532 79.9118 55.5444C80.3186 58.7778 81.2225 60.9901 82.8044 60.9901ZM110.103 29.167C111.143 29.167 111.911 29.5924 112.408 30.103C112.815 30.5284 112.951 31.2091 112.86 32.1451L111.776 44.6531C111.685 45.6742 111.369 46.0145 110.781 45.7592C110.148 45.504 109.199 45.4189 108.25 45.7592C106.939 46.2698 105.403 47.8865 105.403 51.3751V72.3919C105.403 73.413 105.086 74.0086 104.544 74.0086H97.7645C97.2222 74.0086 96.9058 73.413 96.9058 72.3919V31.3793C96.9058 30.3582 97.2222 29.7626 97.7645 29.7626H104.544C105.086 29.7626 105.403 30.3582 105.403 31.3793V32.5705C105.403 33.1661 105.584 33.4214 105.764 32.996C106.804 30.6135 108.205 29.167 110.103 29.167ZM142.6 29.0819C147.345 29.0819 150.148 34.8679 150.148 44.9934V72.3919C150.148 73.413 149.831 74.0086 149.289 74.0086H142.509C141.967 74.0086 141.651 73.413 141.651 72.3919V48.4821C141.651 45.0785 140.701 42.7811 139.3 42.7811C137.854 42.7811 136.86 45.0785 136.86 48.4821V72.3919C136.86 73.413 136.543 74.0086 136.001 74.0086H129.221C128.679 74.0086 128.363 73.413 128.363 72.3919V48.4821C128.363 45.0785 127.323 42.7811 125.832 42.7811C124.566 42.7811 123.617 44.3978 123.346 46.8654C123.301 47.2057 123.301 47.461 123.301 47.7163V72.3919C123.301 73.413 122.984 74.0086 122.442 74.0086H115.662C115.12 74.0086 114.804 73.413 114.804 72.3919V31.3793C114.804 30.3582 115.12 29.7626 115.662 29.7626H122.442C122.984 29.7626 123.301 30.3582 123.301 31.3793V34.6977C123.301 35.3784 123.527 35.4635 123.707 34.8679C124.837 31.0389 126.69 29.0819 129.357 29.0819C132.385 29.0819 134.736 31.7196 135.956 36.4846C136.091 36.9951 136.272 36.9951 136.408 36.3995C137.628 31.2942 139.843 29.0819 142.6 29.0819ZM157.605 27.9758C154.712 27.9758 152.724 24.402 152.724 19.0415C152.724 13.6809 154.712 10.1072 157.605 10.1072C160.543 10.1072 162.486 13.6809 162.486 19.0415C162.486 24.402 160.543 27.9758 157.605 27.9758ZM154.215 74.0086C153.673 74.0086 153.357 73.413 153.357 72.3919V31.3793C153.357 30.3582 153.673 29.7626 154.215 29.7626H160.995C161.537 29.7626 161.854 30.3582 161.854 31.3793V72.3919C161.854 73.413 161.537 74.0086 160.995 74.0086H154.215ZM165.379 74.0086C164.837 74.0086 164.52 73.413 164.52 72.3919V60.7348C164.52 59.969 164.656 59.3734 164.972 58.7778L173.062 45.0785C173.288 44.6531 173.198 44.2276 172.882 44.2276H165.695C165.153 44.2276 164.837 43.632 164.837 42.611V31.3793C164.837 30.3582 165.153 29.7626 165.695 29.7626H182.78C183.322 29.7626 183.638 30.3582 183.638 31.3793V43.0364C183.638 43.8873 183.503 44.3978 183.141 44.9934L174.689 58.6927C174.463 59.1181 174.554 59.5436 174.87 59.5436H183.141C183.684 59.5436 184 60.1392 184 61.1603V72.3919C184 73.413 183.684 74.0086 183.141 74.0086H165.379Z" fill="#48BB78"/>
</g>
<path id="Vector_2" opacity="0.5" d="M2.37864 58.1779C1.60215 59.2606 0.96048 60.4783 0.524451 61.8485C0.25102 62.7123 0.366435 63.825 0.792383 64.4317C1.39651 65.3007 2.14655 66.0573 2.99044 66.7112C3.17333 66.8537 3.38275 66.8014 3.53953 66.5739C3.69632 66.3463 3.77654 65.9784 3.74987 65.6092L3.2524 58.8719C3.22556 58.5093 3.09937 58.2 2.92021 58.0577C2.74104 57.9154 2.53532 57.9611 2.37864 58.1779ZM21.5673 57.9369C21.0425 52.5619 17.9195 49.1386 14.5917 50.2904C12.502 51.0149 7.99155 52.5795 4.51526 55.7779C4.30325 55.977 4.18288 56.4095 4.21662 56.851L4.98969 67.3312C5.01939 67.7458 5.1786 68.0861 5.39329 68.1939C6.25511 68.618 7.15703 68.965 8.06322 69.2429C8.23666 69.2963 8.41325 69.1911 8.53878 68.9595C8.66431 68.728 8.72377 68.3977 8.69892 68.0702L7.80212 56.2454C7.78142 55.9731 7.81908 55.6965 7.90679 55.4765C7.9945 55.2566 8.12506 55.1113 8.26972 55.0727C8.41444 55.0337 8.56146 55.1045 8.67844 55.2696C8.79542 55.4347 8.87277 55.6805 8.89347 55.953L9.87731 68.9184C9.91288 69.3908 10.115 69.7566 10.3671 69.8051C11.3057 69.977 12.2187 70.0766 13.0592 70.1103C13.2209 70.1163 13.3758 69.9882 13.4828 69.7598C13.5898 69.5315 13.638 69.2261 13.6147 68.9248L12.653 56.2454C12.6323 55.9731 12.67 55.6965 12.7577 55.4765C12.8454 55.2566 12.976 55.1113 13.1206 55.0727C13.2654 55.0337 13.4124 55.1045 13.5294 55.2696C13.6463 55.4347 13.7237 55.6805 13.7444 55.953L14.7444 69.1256C14.7845 69.6649 15.0395 70.0537 15.3281 70.0155C15.7188 69.967 16.1079 69.8791 16.4937 69.7521C17.0602 69.5575 17.6121 69.2338 18.1371 68.7882C18.3603 68.5973 18.4904 68.1531 18.4571 67.6959L17.6115 56.2406C17.5916 55.9679 17.63 55.6915 17.7183 55.4722C17.8067 55.2528 17.9377 55.1086 18.0825 55.0711C18.2272 55.0331 18.3741 55.1051 18.4906 55.2711C18.6071 55.4372 18.6838 55.6836 18.7037 55.9562L19.3863 65.1754C19.415 65.5762 19.5648 65.909 19.7702 66.0277C19.9755 66.1465 20.1988 66.0295 20.342 65.728C21.3497 63.5433 21.8446 60.7514 21.5673 57.9369Z" fill="#48BB78"/>
<path id="Vector_3" opacity="0.5" d="M49.7249 49.4677C51.7951 49.4677 53.4734 46.3082 53.4734 42.4107C53.4734 38.5133 51.7951 35.3538 49.7249 35.3538C47.6547 35.3538 45.9764 38.5133 45.9764 42.4107C45.9764 46.3082 47.6547 49.4677 49.7249 49.4677Z" fill="#48BB78"/>
<path id="Vector_4" opacity="0.5" d="M42.2919 40.1557C42.3951 40.4566 42.3994 40.8413 42.303 41.1501C39.9906 48.5637 32.0217 48.5637 29.182 48.5637C26.2791 48.5637 23.9258 44.1333 23.9258 38.6682C23.9258 33.2031 26.2791 28.7727 29.182 28.7727C32.0175 28.7791 39.965 33.3108 42.2919 40.1557ZM29.9892 44.2794C32.3031 44.2794 34.1789 40.9804 34.1789 36.9108C34.1789 32.8412 32.3031 29.5422 29.9892 29.5422C27.6754 29.5422 25.7996 32.8412 25.7996 36.9108C25.7996 40.9804 27.6754 44.2794 29.9892 44.2794Z" fill="#48BB78"/>
<path id="Vector_5" opacity="0.5" d="M32.1396 41.479C32.5962 41.479 32.9664 39.1782 32.9664 36.3401C32.9664 33.5019 32.5962 31.2012 32.1396 31.2012C31.6829 31.2012 31.3127 33.5019 31.3127 36.3401C31.3127 39.1782 31.6829 41.479 32.1396 41.479Z" fill="#48BB78"/>
<path id="Vector_6" d="M45.8723 47.1432L46.863 50.0749C46.9885 50.4459 46.9575 50.9321 46.7887 51.2364L25.2774 90.1148C25.128 90.3858 24.9041 90.4501 24.7185 90.2754L24.2987 89.8802C24.1594 89.7495 24.0613 89.502 24.0344 89.2134C24.0074 88.9247 24.0549 88.6291 24.1622 88.4168L45.1027 47.0035C45.2066 46.7973 45.3553 46.6927 45.5056 46.72C45.6559 46.7473 45.7912 46.9034 45.8723 47.1432ZM27.4525 49.3858C27.6304 49.3187 27.7741 49.0721 27.8261 48.7448C27.8781 48.4174 27.8299 48.0628 27.7008 47.8228C26.4976 45.5931 23.8158 41.116 21.6825 41.1096C21.433 41.1027 21.22 41.4473 21.1859 41.9128C21.1185 42.8169 21.2409 43.7349 21.5272 44.4718C21.6431 44.7763 21.6462 45.1845 21.5349 45.4951C21.0707 46.8171 19.7353 49.8806 17.3137 49.8806C14.3119 49.8806 11.101 40.459 4.4368 39.9401C4.29045 39.9265 4.1485 40.0364 4.04953 40.2398C3.95055 40.4432 3.90485 40.719 3.92483 40.9923C4.26615 45.6653 6.26027 63.9961 16.6499 63.9961C22.4522 63.9961 26.4362 52.0412 27.1274 49.8195C27.1974 49.5935 27.3159 49.4354 27.4525 49.3858Z" fill="#48BB78"/>
<path id="Vector_7" d="M32.642 64.1134C31.13 64.1134 29.8157 63.4832 28.699 62.2227C25.7296 58.8637 25.3712 52.3304 25.361 52.0541C25.3327 51.4832 25.5556 50.9772 25.8589 50.924C26.1621 50.8708 26.4309 51.2904 26.4591 51.8613C26.4634 51.9465 26.7919 57.6573 29.275 60.454C31.4517 62.9038 34.6251 62.5167 38.7063 59.3038C38.9872 59.082 39.3104 59.3309 39.4282 59.8597C39.546 60.3884 39.4138 60.9969 39.133 61.2187C36.6832 63.1464 34.5133 64.1134 32.642 64.1134ZM0.55256 96.9999C0.296604 97.001 0.073913 96.6703 0.0149034 96.2014C-0.0441062 95.7325 0.0760929 95.2489 0.305107 95.0337C7.12541 88.608 12.5224 69.8242 12.5762 69.6347C12.6661 69.2978 12.846 69.0793 13.0461 69.0639C13.2462 69.0484 13.435 69.2385 13.5393 69.5603C13.6436 69.8821 13.6469 70.2851 13.5481 70.613C12.4617 74.2892 11.2405 77.8185 9.89347 81.1751C6.86175 88.7767 3.80187 94.0634 0.798306 96.8907C0.721973 96.9623 0.637857 96.9999 0.55256 96.9999ZM17.4152 81.6539C16.9907 81.6522 16.6092 81.166 16.4507 80.4246C16.2923 79.6833 16.3886 78.835 16.6942 78.2804C22.7926 67.1319 24.1066 63.4163 24.3643 62.2163C23.7841 62.4235 22.4777 63.5383 21.2746 64.8893C21.013 65.183 20.6746 65.0219 20.5186 64.5295C20.3626 64.0371 20.4482 63.3999 20.7097 63.1062C24.5495 58.7962 25.1468 60.2757 25.349 60.7625C25.7868 61.8371 25.4386 63.4773 24.1058 66.6114C22.8361 69.5977 20.6414 73.9527 17.5816 79.5543L18.9221 79.3599C19.2229 79.3238 19.4834 79.7494 19.5067 80.3152C19.53 80.881 19.3076 81.3772 19.0074 81.429L17.4988 81.6474C17.4706 81.6523 17.4433 81.6539 17.4152 81.6539Z" fill="#48BB78"/>
<path id="Vector_8" d="M24.3601 33.7828L24.157 10.8914C24.1546 10.5954 24.0767 10.3195 23.9478 10.1499C23.8188 9.98035 23.6545 9.93768 23.506 10.0352L20.8258 11.7894C20.6155 11.9285 20.3819 11.7829 20.2573 11.435C20.1327 11.0871 20.1486 10.6247 20.2959 10.3099L24.942 0.316417C25.0288 0.129815 25.1516 0.0164443 25.2831 0.00165201C25.4146 -0.0131403 25.5438 0.0718794 25.6417 0.237703C27.2724 3.00555 28.676 9.68662 28.9491 11.0392C28.9814 11.1975 29.0363 11.3359 29.1078 11.4392C31.241 14.5974 34.4519 26.0929 35.2216 28.917C35.3228 29.2887 35.5439 29.4863 35.7608 29.3989L41.1613 27.2206C41.3948 27.1258 41.6306 27.362 41.7193 27.7796L41.7987 28.1523C41.8512 28.3996 41.8445 28.6775 41.7802 28.9148C41.716 29.1521 41.6005 29.3256 41.4633 29.3909L18.8743 40.1217C18.6171 40.2442 18.3548 39.9595 18.2821 39.4791L18.1115 38.3547C18.0747 38.1127 18.092 37.853 18.1594 37.6356C18.2267 37.4182 18.3382 37.2619 18.4682 37.2029L23.9846 34.6936C24.2074 34.5924 24.3633 34.2142 24.3601 33.7828Z" fill="#48BB78"/>
</g>
</svg>
