<svg width="184" height="189" viewBox="0 0 184 189" fill="none" xmlns="http://www.w3.org/2000/svg">
<g clip-path="url(#clip0_620_372)">
<path d="M82.6517 1.42765C69.864 -1.08983 56.6461 -0.305584 44.2453 3.70638C24.8064 10.1643 2.16263 26.6214 0.212325 68.09C-3.25794 141.816 36.1648 180.573 92.4902 188.453C135.067 194.41 163.781 150.206 175.254 128.294C181.146 117.157 184.151 104.718 183.994 92.117C183.509 63.4459 168.488 17.6842 82.6517 1.42765Z" fill="#1E67FE"/>
<path d="M126.22 66.5683C127.782 64.1592 128.595 61.3411 128.558 58.4698C128.558 56.628 128.193 54.8045 127.483 53.1052C126.772 51.406 125.732 49.8649 124.422 48.5714C121.663 45.6919 117.707 43.4123 112.551 41.7326C106.485 39.9247 100.174 39.0746 93.8455 39.213C83.954 39.1113 74.1911 41.4608 65.4276 46.0519C56.9073 50.4973 49.8502 57.3087 45.1034 65.6685C40.9799 72.6435 38.5445 80.9458 37.7974 90.5754C43.3768 85.3031 51.0558 80.8346 61.0994 80.8347C64.8189 80.8153 68.4775 81.7789 71.7054 83.6282C72.1048 82.2904 72.5913 80.9803 73.1616 79.706C75.1827 75.0805 78.5725 71.1862 82.874 68.548C87.6197 65.7959 93.0392 64.4246 98.5218 64.5886C102.758 64.5102 106.971 65.2433 110.932 66.7483C112.037 67.1904 113.113 67.6607 114.16 68.1593C118.365 70.1596 123.591 70.4128 126.22 66.5683Z" fill="white"/>
<path d="M61.0993 91.6243C52.9249 91.6242 46.7933 96.105 42.2155 101.615C40.7922 103.378 39.7952 105.446 39.3022 107.658C38.8093 109.869 38.8336 112.165 39.3734 114.366C49.6854 158.425 98.3323 158.987 119.138 150.981C138.389 143.572 128.432 117.124 119.138 117.124C109.844 117.124 103.212 120.602 95.6102 120.602C76.4271 120.602 76.1827 91.6244 61.0993 91.6243Z" fill="#FFB800"/>
<path d="M95.6101 120.602C76.4271 120.602 76.1827 91.6242 61.0992 91.6241C58.2515 91.6164 55.4319 92.1879 52.8117 93.3039C52.7535 93.3294 52.6985 93.3532 52.65 93.3738C52.6057 93.393 52.5632 93.4153 52.519 93.4348C57.9364 106.616 73.0786 136.475 105.033 119.255C101.953 120.06 98.7919 120.512 95.6101 120.602Z" fill="white" fill-opacity="0.2"/>
</g>
<defs>
<clipPath id="clip0_620_372">
<rect width="184" height="189" fill="white"/>
</clipPath>
</defs>
</svg>
